#!OML:ASF I:\Actors\actors\Patient Classification 2\Patient 1\Session 1\actor1.ASF
:FULLY-SPECIFIED
:DEGREES
779
root -0.658662 18.2404 4.93865 14.8739 -0.108745 -4.35586
lowerback 16.4572 -0.231918 1.8682
upperback -3.15049 0.132156 0.370912
thorax -12.7945 -0.0616166 -0.685662
lowerneck -15.2831 -4.78825 -3.63185
upperneck 11.582 -7.09859 9.18943
head 6.50883 -2.85353 2.81254
rclavicle 3.47873e-015 -1.19271e-015
rhumerus -52.9183 8.3291 -92.509
rradius 120.167
rwrist 17.0692
rhand -8.6744 -48.3308
rfingers 7.12502
rthumb 17.2598 -77.5844
lclavicle 3.47873e-015 -1.19271e-015
lhumerus -46.2509 -16.9048 94.7533
lradius 127.351
lwrist -9.89927
lhand 23.9475 0.310833
lfingers 7.12502
lthumb 48.1932 22.433
rfemur -26.1279 -11.3838 20.3842
rtibia 29.0725
rfoot -17.7961 1.33248
rtoes -12.8003
lfemur -35.7934 10.9545 -11.2474
ltibia 42.9208
lfoot -19.8187 -1.28921
ltoes -56.4877
780
root -0.663029 18.2577 4.9823 14.3417 -0.202469 -4.31943
lowerback 16.314 -0.236393 1.84861
upperback -3.19476 0.12165 0.391061
thorax -12.7604 -0.0639988 -0.649178
lowerneck -15.4036 -4.71021 -3.45586
upperneck 11.3166 -6.95027 8.8348
head 6.41366 -2.80672 2.68447
rclavicle 2.68359e-015 -1.19271e-014
rhumerus -52.8129 8.19422 -92.2649
rradius 120.071
rwrist 17.1441
rhand -4.62049 -51.0986
rfingers 7.12502
rthumb 21.158 -79.9641
lclavicle 2.68359e-015 -1.19271e-014
lhumerus -46.2827 -16.8352 94.6246
lradius 127.344
lwrist -9.75033
lhand 23.9542 0.501184
lfingers 7.12502
lthumb 48.1993 22.6205
rfemur -24.9878 -11.0811 20.1455
rtibia 28.369
rfoot -17.7854 1.08729
rtoes -12.7184
lfemur -34.7279 10.6949 -11.11
ltibia 42.4568
lfoot -19.8779 -1.10521
ltoes -56.4369
781
root -0.667244 18.2774 5.02692 13.7951 -0.28132 -4.24291
lowerback 16.1032 -0.245012 1.79199
upperback -3.23726 0.0968923 0.416701
thorax -12.684 -0.0696348 -0.58188
lowerneck -15.3666 -4.63721 -3.38935
upperneck 10.9684 -6.80096 8.59835
head 6.27481 -2.76087 2.61512
rclavicle 4.87022e-015 -7.95139e-016
rhumerus -52.721 7.98514 -91.9334
rradius 120.108
rwrist 17.7481
rhand -5.90271 -48.6232
rfingers 7.12502
rthumb 19.9259 -77.6217
lclavicle 4.87022e-015 -7.95139e-016
lhumerus -46.3126 -16.6829 94.5154
lradius 127.305
lwrist -9.63746
lhand 24.118 0.639498
lfingers 7.12502
lthumb 48.3502 22.6873
rfemur -23.8111 -10.7559 19.8651
rtibia 27.6332
rfoot -17.8272 0.809045
rtoes -12.8035
lfemur -33.6391 10.454 -11.0302
ltibia 41.9656
lfoot -19.9131 -0.910666
ltoes -56.479
782
root -0.67192 18.2979 5.07171 13.2453 -0.35011 -4.21253
lowerback 15.8766 -0.242928 1.80434
upperback -3.28661 0.101392 0.448454
thorax -12.6055 -0.0665728 -0.554883
lowerneck -15.3815 -4.58614 -3.40513
upperneck 10.6902 -6.68321 8.44915
head 6.17585 -2.72311 2.5828
rclavicle 3.37934e-015 -8.34896e-015
rhumerus -52.6653 7.79457 -91.6842
rradius 120.127
rwrist 17.9879
rhand -5.68223 -48.0377
rfingers 7.12502
rthumb 20.1378 -77.0139
lclavicle 3.37934e-015 -8.34896e-015
lhumerus -46.3388 -16.5456 94.399
lradius 127.194
lwrist -9.55736
lhand 24.2253 0.651775
lfingers 7.12502
lthumb 48.449 22.6524
rfemur -22.605 -10.4133 19.6525
rtibia 26.8453
rfoot -17.8378 0.479643
rtoes -13.2542
lfemur -32.5449 10.2825 -10.9107
ltibia 41.442
lfoot -19.9387 -0.732034
ltoes -56.5781
783
root -0.676851 18.317 5.11629 12.6683 -0.412365 -4.18495
lowerback 15.6971 -0.241735 1.84389
upperback -3.34051 0.108844 0.459256
thorax -12.5601 -0.0654694 -0.567237
lowerneck -15.5102 -4.4979 -3.31464
upperneck 10.5251 -6.53772 8.2464
head 6.12507 -2.66563 2.51726
rclavicle -9.74045e-015 -1.59028e-015
rhumerus -52.6155 7.67221 -91.5547
rradius 120.07
rwrist 17.8407
rhand -4.51294 -48.7606
rfingers 7.12502
rthumb 21.2613 -77.6145
lclavicle -9.74045e-015 -1.59028e-015
lhumerus -46.3479 -16.4708 94.2178
lradius 127.059
lwrist -9.4362
lhand 24.1321 0.590387
lfingers 7.12502
lthumb 48.3631 22.632
rfemur -21.3306 -10.0767 19.4493
rtibia 25.9821
rfoot -17.8065 0.124729
rtoes -13.5714
lfemur -31.4061 10.0941 -10.7827
ltibia 40.8895
lfoot -19.9647 -0.52907
ltoes -56.6953
784
root -0.681146 18.3374 5.16172 12.059 -0.481434 -4.14197
lowerback 15.5327 -0.245265 1.87134
upperback -3.37785 0.109028 0.482998
thorax -12.5048 -0.0660614 -0.556574
lowerneck -15.6558 -4.39401 -3.19334
upperneck 10.3605 -6.36808 7.97509
head 6.07268 -2.60007 2.42725
rclavicle -1.19271e-015 1.07344e-014
rhumerus -52.5818 7.64122 -91.4988
rradius 119.957
rwrist 17.4908
rhand -2.28023 -50.8402
rfingers 7.12502
rthumb 23.4046 -79.437
lclavicle -1.19271e-015 1.07344e-014
lhumerus -46.3247 -16.3486 94.0281
lradius 126.911
lwrist -9.24544
lhand 24.0365 0.561251
lfingers 7.12502
lthumb 48.2751 22.6447
rfemur -19.9864 -9.74236 19.2277
rtibia 25.0536
rfoot -17.8098 -0.233939
rtoes -13.5939
lfemur -30.2063 9.86838 -10.6714
ltibia 40.3187
lfoot -20.003 -0.294352
ltoes -56.7902
785
root -0.685379 18.3601 5.20856 11.4379 -0.556471 -4.1454
lowerback 15.3305 -0.240554 1.93892
upperback -3.39277 0.130777 0.539578
thorax -12.4009 -0.0574627 -0.538157
lowerneck -15.7901 -4.31876 -3.13331
upperneck 10.1738 -6.22425 7.709
head 6.01548 -2.54982 2.34641
rclavicle 9.44227e-015 -1.15295e-014
rhumerus -52.6071 7.76025 -91.5996
rradius 119.724
rwrist 16.5024
rhand -7.35336 -47.1
rfingers 7.12502
rthumb 18.5309 -76.2373
lclavicle 9.44227e-015 -1.15295e-014
lhumerus -46.284 -16.1963 93.8524
lradius 126.704
lwrist -8.99785
lhand 23.9817 0.48028
lfingers 7.12502
lthumb 48.2247 22.5876
rfemur -18.5966 -9.3845 19.0639
rtibia 24.0668
rfoot -17.8165 -0.636312
rtoes -13.8161
lfemur -28.9791 9.67799 -10.5171
ltibia 39.732
lfoot -20.0408 -0.108055
ltoes -56.8673
786
root -0.690143 18.3823 5.25587 10.8185 -0.610847 -4.15974
lowerback 15.1049 -0.240327 2.00884
upperback -3.44143 0.147344 0.603349
thorax -12.3218 -0.0514847 -0.51169
lowerneck -15.7715 -4.23038 -3.09579
upperneck 9.9634 -6.06671 7.49259
head 5.92764 -2.4939 2.28881
rclavicle -2.48481e-015 -1.19271e-015
rhumerus -52.6097 7.69547 -91.4054
rradius 119.544
rwrist 16.5344
rhand -8.00768 -46.0084
rfingers 7.12502
rthumb 17.9015 -75.2045
lclavicle -2.48481e-015 -1.19271e-015
lhumerus -46.33 -16.0172 93.7089
lradius 126.415
lwrist -8.73082
lhand 23.9631 0.283484
lfingers 7.12502
lthumb 48.2075 22.3989
rfemur -17.1711 -8.98566 18.9186
rtibia 23.0129
rfoot -17.7927 -1.08532
rtoes -14.0296
lfemur -27.7528 9.43461 -10.347
ltibia 39.1354
lfoot -20.0675 0.107365
ltoes -56.9578
787
root -0.693454 18.4025 5.30668 10.1508 -0.69201 -4.09467
lowerback 14.8457 -0.219627 2.0262
upperback -3.47506 0.176441 0.6418
thorax -12.2048 -0.0365058 -0.486605
lowerneck -15.6837 -4.13885 -2.98169
upperneck 9.7106 -5.90161 7.1409
head 5.80806 -2.44374 2.17781
rclavicle -1.63997e-015 -3.57812e-015
rhumerus -52.5811 7.63892 -91.1515
rradius 119.312
rwrist 16.4125
rhand -7.99991 -45.848
rfingers 7.12502
rthumb 17.9089 -75.0434
lclavicle -1.63997e-015 -3.57812e-015
lhumerus -46.3852 -15.8506 93.6117
lradius 126.056
lwrist -8.48503
lhand 23.8751 0.21656
lfingers 7.12502
lthumb 48.1264 22.3702
rfemur -15.6554 -8.57082 18.6691
rtibia 21.9095
rfoot -17.7473 -1.48197
rtoes -13.962
lfemur -26.4397 9.13971 -10.2691
ltibia 38.5322
lfoot -20.1517 0.408126
ltoes -57.1251
788
root -0.696266 18.4199 5.35781 9.4662 -0.781092 -4.02889
lowerback 14.5685 -0.177214 2.07276
upperback -3.50122 0.239073 0.677033
thorax -12.0677 -0.00779204 -0.489827
lowerneck -15.5303 -4.03182 -2.55613
upperneck 9.39299 -5.7184 6.33627
head 5.63327 -2.40907 1.87689
rclavicle 8.94531e-016 -1.15295e-014
rhumerus -52.5657 7.54739 -90.8584
rradius 119.012
rwrist 16.2644
rhand -8.12161 -45.8854
rfingers 7.12502
rthumb 17.7918 -75.0915
lclavicle 8.94531e-016 -1.15295e-014
lhumerus -46.4693 -15.7673 93.5511
lradius 125.615
lwrist -8.28062
lhand 23.6498 0.316987
lfingers 7.12502
lthumb 47.9187 22.5676
rfemur -14.0912 -8.14376 18.4292
rtibia 20.7474
rfoot -17.6692 -1.89573
rtoes -13.9199
lfemur -25.0793 8.89794 -10.1992
ltibia 37.8657
lfoot -20.2127 0.641313
ltoes -57.3114
789
root -0.702446 18.4358 5.4006 8.80148 -0.858235 -4.00918
lowerback 14.3542 -0.153456 2.09494
upperback -3.56597 0.277659 0.741634
thorax -12.0129 0.0118749 -0.440631
lowerneck -15.3227 -3.88571 -2.12937
upperneck 9.16952 -5.49912 5.58187
head 5.48255 -2.35082 1.59666
rclavicle -7.45443e-015 6.36111e-015
rhumerus -52.5907 7.53627 -90.6299
rradius 118.57
rwrist 16.319
rhand -8.16644 -45.8666
rfingers 7.12502
rthumb 17.7487 -75.0766
lclavicle -7.45443e-015 6.36111e-015
lhumerus -46.6409 -15.6468 93.4897
lradius 125.078
lwrist -8.16003
lhand 23.3808 0.230444
lfingers 7.12502
lthumb 47.6705 22.5955
rfemur -12.5639 -7.5926 18.2858
rtibia 19.532
rfoot -17.5831 -2.4694
rtoes -13.789
lfemur -23.774 8.61664 -10.0569
ltibia 37.1583
lfoot -20.1761 0.866304
ltoes -57.3837
